<svg xmlns="http://www.w3.org/2000/svg" viewBox="0 0 64 64">
  <defs>
    <linearGradient id="fg" x1="0%" y1="0%" x2="100%" y2="100%">
      <stop offset="0%" stop-color="#2d7ff9"/>
      <stop offset="100%" stop-color="#1555c0"/>
    </linearGradient>
  </defs>
  <rect width="64" height="64" rx="14" fill="url(#fg)"/>
  <g stroke="#0f2f6f" stroke-width="2" stroke-linejoin="round" stroke-linecap="round">
    <circle cx="20" cy="20" r="8" fill="#fbe1c6"/>
    <circle cx="44" cy="20" r="8" fill="#fbe1c6"/>
    <path d="M14 26c0-11 9-20 18-20h0c9 0 18 9 18 20v10c0 11-9 20-18 20s-18-9-18-20z" fill="#fbe1c6"/>
    <ellipse cx="32" cy="36" rx="12" ry="10" fill="#fff4e4"/>
    <g fill="#0f2f6f" stroke-width="0">
      <circle cx="26" cy="30" r="3"/>
      <circle cx="38" cy="30" r="3"/>
      <circle cx="32" cy="37" r="3.2"/>
    </g>
  </g>
  <g stroke="#1fa841" stroke-width="2" stroke-linejoin="round" stroke-linecap="round">
    <path d="M14 40h36a6 6 0 0 1 6 6v8a6 6 0 0 1-6 6H14a6 6 0 0 1-6-6v-8a6 6 0 0 1 6-6z" fill="#ffffff" fill-opacity="0.96"/>
    <path d="M10 42l22 16 22-16" fill="none"/>
  </g>
</svg>
