<svg xmlns="http://www.w3.org/2000/svg" viewBox="0 0 128 128" role="img" aria-labelledby="title desc">
  <title id="title">GopherPost Logo</title>
  <desc id="desc">Gopher character holding an envelope on a blue gradient badge</desc>
  <defs>
    <linearGradient id="gp-bg" x1="0%" y1="0%" x2="100%" y2="100%">
      <stop offset="0%" stop-color="#2d7ff9"/>
      <stop offset="100%" stop-color="#1555c0"/>
    </linearGradient>
    <linearGradient id="gp-env" x1="0%" y1="0%" x2="100%" y2="100%">
      <stop offset="0%" stop-color="#ffffff" stop-opacity="0.95"/>
      <stop offset="100%" stop-color="#eef3ff"/>
    </linearGradient>
  </defs>
  <circle cx="64" cy="64" r="60" fill="url(#gp-bg)"/>
  <g stroke="#0f2f6f" stroke-width="2.4" stroke-linejoin="round" stroke-linecap="round">
    <g fill="#fbe1c6">
      <circle cx="44" cy="39" r="11"/>
      <circle cx="84" cy="39" r="11"/>
      <path d="M38 50c0-15 12-26 26-26s26 11 26 26v14c0 15-12 26-26 26S38 79 38 64z"/>
    </g>
    <ellipse cx="64" cy="70" rx="19" ry="15" fill="#fff4e4"/>
    <g fill="#0f2f6f" stroke-width="0">
      <circle cx="54" cy="60" r="4"/>
      <circle cx="74" cy="60" r="4"/>
      <circle cx="64" cy="72" r="4.5"/>
    </g>
    <g fill="#ffffff" stroke-width="0">
      <circle cx="53" cy="59" r="1.4"/>
      <circle cx="73" cy="59" r="1.4"/>
    </g>
    <path d="M56 83h16" stroke="#0f2f6f" stroke-width="2" stroke-linecap="round"/>
  </g>
  <g stroke="#1fa841" stroke-width="2.4" stroke-linejoin="round" stroke-linecap="round">
    <path d="M40 78h48a8 8 0 0 1 8 8v14a8 8 0 0 1-8 8H40a8 8 0 0 1-8-8V86a8 8 0 0 1 8-8z" fill="url(#gp-env)"/>
    <path d="M33 82l32 22 30-22" fill="none"/>
  </g>
</svg>
